<?xml version="1.0" encoding="utf-8"?>
<!-- Generator: Adobe Illustrator 16.0.3, SVG Export Plug-In . SVG Version: 6.00 Build 0)  -->
<!DOCTYPE svg PUBLIC "-//W3C//DTD SVG 1.1//EN" "http://www.w3.org/Graphics/SVG/1.1/DTD/svg11.dtd">
<svg version="1.1" id="Ebene_1" xmlns="http://www.w3.org/2000/svg" xmlns:xlink="http://www.w3.org/1999/xlink" x="0px" y="0px"
	 viewBox="0 0 463.202 563.626" enable-background="new 0 0 463.202 563.626"
	 xml:space="preserve">
<path fill-rule="evenodd" clip-rule="evenodd" d="M427.161,348.718c1.203,2.344,2.276,4.417,3.333,6.502
	c2.526,4.974,1.893,9.546-1.773,13.723c-0.885,1.009-1.797,1.994-2.649,3.027c-1.223,1.489-2.495,2.948-3.577,4.536
	c-2.093,3.071-1.906,3.896,0.322,6.911c2.284,3.092,4.756,6.133,6.473,9.539c7.029,13.933,3.444,31.888-8.258,42.906
	c-3.977,3.742-8.551,6.482-13.694,8.209c-10.239,3.434-20.418,7.108-30.805,10.041c-17.171,4.851-32.027,13.755-45.118,25.512
	c-9.565,8.593-17.435,18.807-23.74,30.07c-3.768,6.732-5.641,14.056-6.038,21.842c-0.279,5.419-1.308,10.799-2.059,16.19
	c-0.234,1.683-1.272,2.98-2.695,3.771c-2.184,1.22-4.411,2.432-6.756,3.273c-6.568,2.362-13.426,3.562-20.311,4.569
	c-19.528,2.856-39.185,3.825-58.892,4.174c-18.533,0.326-37.05-0.054-55.542-1.255c-15.304-0.997-30.566-2.474-45.644-5.426
	c-6.828-1.337-13.636-2.808-20.052-5.58c-2.519-1.087-4.926-2.494-7.231-3.993c-2.112-1.372-3.381-3.418-3.676-6.022
	c-0.925-8.155-2.204-16.282-2.758-24.461c-0.578-8.519-0.688-17.089-0.593-25.631c0.067-6.018,0.962-12.021,1.229-18.044
	c0.308-6.943,0.682-13.915,0.405-20.848c-0.528-13.147-1.477-26.273-2.303-39.405c-0.226-3.596-0.596-7.182-0.995-10.764
	c-0.099-0.881-0.458-1.779-0.887-2.568c-10.026-18.397-20.24-36.697-31.477-54.384c-11.494-18.091-20.13-37.449-26.904-57.705
	c-5.459-16.323-9.487-33.001-11.927-50.037c-2.517-17.56-3.291-35.185-1.848-52.907c1.075-13.208,2.568-26.348,5.195-39.341
	c3.504-17.333,8.761-34.061,17.351-49.615c8.096-14.66,18.703-27.18,32.15-37.192c5.304-3.949,10.74-7.751,16.343-11.258
	c3.234-2.025,6.866-3.458,10.422-4.909c2.353-0.96,4.882-1.135,7.458,0.178c0.19-1.15,0.317-2.197,0.542-3.222
	c1.193-5.396,3.99-9.908,7.749-13.869c5.107-5.382,11.333-9.121,18.036-12.125c7.76-3.477,15.923-5.654,24.205-7.461
	c15.016-3.278,30.164-5.496,45.562-5.662c13.216-0.143,26.258,1.477,39.167,4.18c10.818,2.266,21.578,4.816,32.413,7.002
	c8.125,1.639,16.333,2.853,24.49,4.339c8.118,1.479,16.018,3.625,23.072,8.145c5.47,3.506,10.303,7.76,14.693,12.529
	c1.307,1.418,2.617,2.836,3.852,4.316c4.684,5.613,9.797,10.716,15.609,15.236c9.778,7.605,18.2,16.59,25.098,26.937
	c0.975,1.463,1.894,2.966,2.768,4.494c5.194,9.094,10.366,18.2,15.547,27.302c2.369,4.159,4.347,8.418,5.417,13.173
	c1.409,6.259,4.534,11.877,7.799,17.357c2.871,4.822,5.934,9.533,8.849,14.328c3.76,6.185,6.18,12.801,6.329,20.138
	c0.028,1.419,0.291,2.832,0.437,4.25c0.542,5.308,0.433,10.519-1.721,15.561c-0.849,1.984-1.237,4.166-1.828,6.258
	c-0.754,2.666-0.093,4.957,1.815,6.932c2.095,2.171,4.127,4.407,6.272,6.526c4.246,4.193,8.094,8.696,11.555,13.572
	c4.419,6.229,9.399,11.964,15.07,17.154c4.937,4.517,9.48,9.477,14.023,14.403c1.856,2.015,3.441,4.345,4.812,6.729
	c3.005,5.236,2.502,10.157-1.521,14.597c-4.496,4.964-9.85,8.832-16.022,11.479c-1.372,0.589-2.865,0.93-4.333,1.253
	c-3.94,0.863-5.864,2.579-5.996,6.607c-0.111,3.391,0.223,6.892,1.005,10.189c0.904,3.8,2.411,7.472,3.86,11.12
	c1.032,2.599,1.981,5.17,1.809,8.006c-0.054,0.91-0.104,1.898-0.477,2.701c-2.04,4.384-4.526,8.394-9.334,10.307
	C429.266,347.526,428.341,348.108,427.161,348.718z"/>
</svg>
